<svg width="34" height="22" viewBox="0 0 34 22" fill="none" xmlns="http://www.w3.org/2000/svg">
    <path d="M17.0085 1.93931e-06C13.226 1.93931e-06 9.44633 1.11927 6.17808 3.35925H0L2.78092 6.40727C1.51386 7.57062 0.625624 9.09301 0.2329 10.7744C-0.159823 12.4558 -0.0386672 14.2177 0.580452 15.8284C1.19957 17.4392 2.2877 18.8235 3.70188 19.7996C5.11606 20.7757 6.79016 21.2979 8.50425 21.2976C10.646 21.2995 12.7088 20.4832 14.2772 19.0134L17 22L19.7228 19.0162C21.2902 20.4845 23.3515 21.2997 25.4915 21.2976C27.7453 21.2976 29.9069 20.3955 31.5009 18.7897C33.0949 17.1839 33.9907 15.0059 33.9915 12.7346C33.9928 11.5434 33.7468 10.3651 33.2694 9.27542C32.7919 8.18574 32.0935 7.20876 31.2191 6.40727L34 3.35925H27.8375C24.6446 1.16884 20.871 -0.0017391 17.0085 1.93931e-06ZM17 2.79818C19.1689 2.79818 21.3392 3.23076 23.3807 4.08735C19.7526 5.48644 17 8.7586 17 12.5704C17 8.75717 14.2488 5.48644 10.6193 4.08735C12.6411 3.23817 14.8096 2.79909 17 2.79818ZM8.50283 6.94121C9.25797 6.94121 10.0057 7.0911 10.7034 7.38231C11.401 7.67353 12.0349 8.10037 12.5689 8.63847C13.1028 9.17657 13.5264 9.81538 13.8154 10.5184C14.1043 11.2215 14.2531 11.975 14.2531 12.736C14.2531 13.497 14.1043 14.2505 13.8154 14.9536C13.5264 15.6567 13.1028 16.2955 12.5689 16.8336C12.0349 17.3717 11.401 17.7985 10.7034 18.0897C10.0057 18.3809 9.25797 18.5308 8.50283 18.5308C6.97777 18.5308 5.51517 17.9203 4.43679 16.8336C3.35841 15.7468 2.75258 14.2729 2.75258 12.736C2.75258 11.1991 3.35841 9.72521 4.43679 8.63847C5.51517 7.55173 6.97777 6.94121 8.50283 6.94121ZM25.4915 6.94406C26.2464 6.94378 26.9939 7.09334 27.6914 7.38419C28.3889 7.67503 29.0227 8.10148 29.5567 8.63918C30.0906 9.17688 30.5143 9.8153 30.8034 10.518C31.0925 11.2207 31.2415 11.9739 31.2417 12.7346C31.242 13.4953 31.0936 14.2486 30.805 14.9515C30.5164 15.6544 30.0932 16.2932 29.5597 16.8313C29.0261 17.3693 28.3926 17.7963 27.6953 18.0876C26.998 18.379 26.2506 18.5291 25.4957 18.5294C23.9713 18.53 22.509 17.9202 21.4306 16.8343C20.3522 15.7483 19.7461 14.2752 19.7455 12.7389C19.7449 11.2026 20.35 9.72895 21.4276 8.64221C22.5052 7.55547 23.967 6.94463 25.4915 6.94406ZM8.50283 9.69942C7.70329 9.69942 6.9365 10.0195 6.37114 10.5892C5.80578 11.159 5.48817 11.9317 5.48817 12.7374C5.48817 13.5432 5.80578 14.3159 6.37114 14.8857C6.9365 15.4554 7.70329 15.7755 8.50283 15.7755C9.30237 15.7755 10.0692 15.4554 10.6345 14.8857C11.1999 14.3159 11.5175 13.5432 11.5175 12.7374C11.5175 11.9317 11.1999 11.159 10.6345 10.5892C10.0692 10.0195 9.30237 9.69942 8.50283 9.69942ZM25.4915 9.69942C24.692 9.69942 23.9252 10.0195 23.3598 10.5892C22.7944 11.159 22.4768 11.9317 22.4768 12.7374C22.4768 13.5432 22.7944 14.3159 23.3598 14.8857C23.9252 15.4554 24.692 15.7755 25.4915 15.7755C26.291 15.7755 27.0578 15.4554 27.6232 14.8857C28.1886 14.3159 28.5062 13.5432 28.5062 12.7374C28.5062 11.9317 28.1886 11.159 27.6232 10.5892C27.0578 10.0195 26.291 9.69942 25.4915 9.69942Z"
          fill="#DB5F40"/>
</svg>